ffmpeg started on 2025-05-12 at 12:57:29
Report written to "D:\Convert\FFMetrics\reports\psnr_report-6.txt"
Log level: 32
Command line:
ffmpeg -hide_banner -nostdin -i "G:\\\xc0\xed\xe8\xec\xe5\\\xce\xed\xe3\xee\xe8\xed\xe3\xe8\\!_35_\xcb\xe5\xf2\xee_2024\\DreamCast\\\xc0\xeb\xff \xe8\xed\xee\xe3\xe4\xe0 \xea\xee\xea\xe5\xf2\xed\xe8\xf7\xe0\xe5\xf2 \xf1\xee \xec\xed\xee\xe9 \xef\xee-\xf0\xf3\xf1\xf1\xea\xe8\\[DC] Roshidere - 01_Telegram_HEVC.mkv" -i "G:\\\xc0\xed\xe8\xec\xe5\\\xce\xed\xe3\xee\xe8\xed\xe3\xe8\\!_35_\xcb\xe5\xf2\xee_2024\\DreamCast\\\xc0\xeb\xff \xe8\xed\xee\xe3\xe4\xe0 \xea\xee\xea\xe5\xf2\xed\xe8\xf7\xe0\xe5\xf2 \xf1\xee \xec\xed\xee\xe9 \xef\xee-\xf0\xf3\xf1\xf1\xea\xe8\\[DC] Roshidere - 01_Telegram.mp4" -lavfi "[0:v]settb=AVTB,setpts=PTS-STARTPTS,format=pix_fmts=yuv420p10,fps=24000/1001,scale=1920:1080:flags=bicubic[main];[1:v]settb=AVTB,setpts=PTS-STARTPTS,format=pix_fmts=yuv420p,fps=24000/1001,scale=1920:1080:flags=bicubic[ref];[main][ref]psnr=eof_action=endall:stats_file='D\\:/Convert/FFMetrics/logs/psnr_logfile-6.txt'" -f null -
Input #0, matroska,webm, from 'G:\Аниме\Онгоинги\!_35_Лето_2024\DreamCast\Аля иногда кокетничает со мной по-русски\[DC] Roshidere - 01_Telegram_HEVC.mkv':
  Metadata:
    COMPATIBLE_BRANDS: isomiso2avc1mp41
    MAJOR_BRAND     : isom
    MINOR_VERSION   : 512
    ENCODER         : Lavf61.7.100
  Duration: 00:24:46.98, start: -0.021000, bitrate: 1317 kb/s
  Stream #0:0: Video: hevc (Main 10), yuv420p10le(tv, bt709, progressive), 1920x1080 [SAR 1:1 DAR 16:9], 23.98 fps, 23.98 tbr, 1k tbn (default)
      Metadata:
        HANDLER_NAME    : VideoHandler
        VENDOR_ID       : [0][0][0][0]
        ENCODER         : Lavc61.19.100 libx265
        BPS             : 1120800
        DURATION        : 00:24:46.484708333
        NUMBER_OF_FRAMES: 35640
        NUMBER_OF_BYTES : 208256420
        _STATISTICS_WRITING_APP: mkvpropedit v66.0.0 ('Josie') 64-bit
        _STATISTICS_WRITING_DATE_UTC: 2025-05-06 11:21:55
        _STATISTICS_TAGS: BPS DURATION NUMBER_OF_FRAMES NUMBER_OF_BYTES
  Stream #0:1: Audio: aac (LC), 48000 Hz, stereo, fltp (default)
      Metadata:
        HANDLER_NAME    : SoundHandler
        VENDOR_ID       : [0][0][0][0]
        ENCODER         : Lavc61.19.100 aac
        BPS             : 193223
        DURATION        : 00:24:46.976000000
        NUMBER_OF_FRAMES: 69703
        NUMBER_OF_BYTES : 35914785
        _STATISTICS_WRITING_APP: mkvpropedit v66.0.0 ('Josie') 64-bit
        _STATISTICS_WRITING_DATE_UTC: 2025-05-06 11:21:55
        _STATISTICS_TAGS: BPS DURATION NUMBER_OF_FRAMES NUMBER_OF_BYTES
Input #1, mov,mp4,m4a,3gp,3g2,mj2, from 'G:\Аниме\Онгоинги\!_35_Лето_2024\DreamCast\Аля иногда кокетничает со мной по-русски\[DC] Roshidere - 01_Telegram.mp4':
  Metadata:
    major_brand     : isom
    minor_version   : 512
    compatible_brands: isomiso2avc1mp41
    encoder         : Lavf60.16.100
  Duration: 00:24:46.92, start: 0.000000, bitrate: 3835 kb/s
  Stream #1:0[0x1](und): Video: h264 (High) (avc1 / 0x31637661), yuv420p(tv, bt709, progressive), 1920x1080 [SAR 1:1 DAR 16:9], 3689 kb/s, 23.98 fps, 23.98 tbr, 24k tbn (default)
      Metadata:
        handler_name    : VideoHandler
        vendor_id       : [0][0][0][0]
        encoder         : Lavc60.31.102 h264_qsv
  Stream #1:1[0x2](und): Audio: aac (HE-AACv2) (mp4a / 0x6134706D), 48000 Hz, stereo, fltp, 144 kb/s (default)
      Metadata:
        handler_name    : SoundHandler
        vendor_id       : [0][0][0][0]
Stream mapping:
  Stream #0:0 (hevc) -> settb:default
  Stream #1:0 (h264) -> settb:default
  psnr:default -> Stream #0:0 (wrapped_avframe)
  Stream #0:1 -> #0:1 (aac (native) -> pcm_s16le (native))
Output #0, null, to 'pipe:':
  Metadata:
    COMPATIBLE_BRANDS: isomiso2avc1mp41
    MAJOR_BRAND     : isom
    MINOR_VERSION   : 512
    encoder         : Lavf61.7.100
  Stream #0:0: Video: wrapped_avframe, yuv420p10le(tv, bt709, progressive), 1920x1080 [SAR 1:1 DAR 16:9], q=2-31, 200 kb/s, 23.98 fps, 23.98 tbn
      Metadata:
        encoder         : Lavc61.19.100 wrapped_avframe
  Stream #0:1: Audio: pcm_s16le, 48000 Hz, stereo, s16, 1536 kb/s (default)
      Metadata:
        HANDLER_NAME    : SoundHandler
        VENDOR_ID       : [0][0][0][0]
        _STATISTICS_TAGS: BPS DURATION NUMBER_OF_FRAMES NUMBER_OF_BYTES
        BPS             : 193223
        DURATION        : 00:24:46.976000000
        NUMBER_OF_FRAMES: 69703
        NUMBER_OF_BYTES : 35914785
        _STATISTICS_WRITING_APP: mkvpropedit v66.0.0 ('Josie') 64-bit
        _STATISTICS_WRITING_DATE_UTC: 2025-05-06 11:21:55
        encoder         : Lavc61.19.100 pcm_s16le
frame=  177 fps=0.0 q=-0.0 size=N/A time=00:00:07.38 bitrate=N/A speed=14.4x    frame=  409 fps=395 q=-0.0 size=N/A time=00:00:17.05 bitrate=N/A speed=16.5x    frame=  591 fps=380 q=-0.0 size=N/A time=00:00:24.64 bitrate=N/A speed=15.9x    frame=  771 fps=375 q=-0.0 size=N/A time=00:00:32.15 bitrate=N/A speed=15.6x    frame= 1020 fps=394 q=-0.0 size=N/A time=00:00:42.54 bitrate=N/A speed=16.4x    frame= 1214 fps=393 q=-0.0 size=N/A time=00:00:50.63 bitrate=N/A speed=16.4x    frame= 1477 fps=409 q=-0.0 size=N/A time=00:01:01.60 bitrate=N/A speed=17.1x    frame= 1745 fps=422 q=-0.0 size=N/A time=00:01:12.78 bitrate=N/A speed=17.6x    frame= 1979 fps=427 q=-0.0 size=N/A time=00:01:22.54 bitrate=N/A speed=17.8x    frame= 2177 fps=422 q=-0.0 size=N/A time=00:01:30.79 bitrate=N/A speed=17.6x    frame= 2424 fps=427 q=-0.0 size=N/A time=00:01:41.10 bitrate=N/A speed=17.8x    frame= 2671 fps=432 q=-0.0 size=N/A time=00:01:51.40 bitrate=N/A speed=  18x    frame= 2933 fps=437 q=-0.0 size=N/A time=00:02:02.33 bitrate=N/A speed=18.2x    frame= 3209 fps=444 q=-0.0 size=N/A time=00:02:13.84 bitrate=N/A speed=18.5x    frame= 3482 fps=449 q=-0.0 size=N/A time=00:02:25.22 bitrate=N/A speed=18.7x    frame= 3759 fps=454 q=-0.0 size=N/A time=00:02:36.78 bitrate=N/A speed=  19x    frame= 4009 fps=457 q=-0.0 size=N/A time=00:02:47.20 bitrate=N/A speed=  19x    frame= 4262 fps=458 q=-0.0 size=N/A time=00:02:57.76 bitrate=N/A speed=19.1x    frame= 4523 fps=461 q=-0.0 size=N/A time=00:03:08.64 bitrate=N/A speed=19.2x    frame= 4760 fps=461 q=-0.0 size=N/A time=00:03:18.53 bitrate=N/A speed=19.2x    frame= 5007 fps=462 q=-0.0 size=N/A time=00:03:28.83 bitrate=N/A speed=19.2x    frame= 5268 fps=464 q=-0.0 size=N/A time=00:03:39.71 bitrate=N/A speed=19.3x    frame= 5516 fps=465 q=-0.0 size=N/A time=00:03:50.06 bitrate=N/A speed=19.4x    frame= 5757 fps=465 q=-0.0 size=N/A time=00:04:00.11 bitrate=N/A speed=19.4x    frame= 6036 fps=467 q=-0.0 size=N/A time=00:04:11.75 bitrate=N/A speed=19.5x    frame= 6289 fps=469 q=-0.0 size=N/A time=00:04:22.30 bitrate=N/A speed=19.5x    frame= 6529 fps=468 q=-0.0 size=N/A time=00:04:32.31 bitrate=N/A speed=19.5x    frame= 6678 fps=462 q=-0.0 size=N/A time=00:04:38.52 bitrate=N/A speed=19.3x    frame= 6863 fps=459 q=-0.0 size=N/A time=00:04:46.24 bitrate=N/A speed=19.1x    frame= 7076 fps=457 q=-0.0 size=N/A time=00:04:55.12 bitrate=N/A speed=19.1x    frame= 7252 fps=453 q=-0.0 size=N/A time=00:05:02.46 bitrate=N/A speed=18.9x    frame= 7468 fps=452 q=-0.0 size=N/A time=00:05:11.47 bitrate=N/A speed=18.9x    frame= 7660 fps=450 q=-0.0 size=N/A time=00:05:19.48 bitrate=N/A speed=18.8x    frame= 7860 fps=448 q=-0.0 size=N/A time=00:05:27.82 bitrate=N/A speed=18.7x    frame= 8078 fps=447 q=-0.0 size=N/A time=00:05:36.91 bitrate=N/A speed=18.7x    frame= 8256 fps=444 q=-0.0 size=N/A time=00:05:44.34 bitrate=N/A speed=18.5x    frame= 8417 fps=441 q=-0.0 size=N/A time=00:05:51.05 bitrate=N/A speed=18.4x    frame= 8584 fps=438 q=-0.0 size=N/A time=00:05:58.02 bitrate=N/A speed=18.3x    frame= 8793 fps=437 q=-0.0 size=N/A time=00:06:06.74 bitrate=N/A speed=18.2x    frame= 8990 fps=436 q=-0.0 size=N/A time=00:06:14.95 bitrate=N/A speed=18.2x    frame= 9222 fps=436 q=-0.0 size=N/A time=00:06:24.63 bitrate=N/A speed=18.2x    frame= 9488 fps=438 q=-0.0 size=N/A time=00:06:35.72 bitrate=N/A speed=18.3x    frame= 9762 fps=440 q=-0.0 size=N/A time=00:06:47.15 bitrate=N/A speed=18.3x    frame=10013 fps=441 q=-0.0 size=N/A time=00:06:57.62 bitrate=N/A speed=18.4x    frame=10295 fps=443 q=-0.0 size=N/A time=00:07:09.38 bitrate=N/A speed=18.5x    frame=10549 fps=444 q=-0.0 size=N/A time=00:07:19.98 bitrate=N/A speed=18.5x    frame=10775 fps=444 q=-0.0 size=N/A time=00:07:29.40 bitrate=N/A speed=18.5x    frame=11018 fps=445 q=-0.0 size=N/A time=00:07:39.54 bitrate=N/A speed=18.5x    frame=11278 fps=446 q=-0.0 size=N/A time=00:07:50.38 bitrate=N/A speed=18.6x    frame=11544 fps=447 q=-0.0 size=N/A time=00:08:01.48 bitrate=N/A speed=18.6x    frame=11814 fps=449 q=-0.0 size=N/A time=00:08:12.74 bitrate=N/A speed=18.7x    frame=12082 fps=450 q=-0.0 size=N/A time=00:08:23.92 bitrate=N/A speed=18.8x    frame=12359 fps=452 q=-0.0 size=N/A time=00:08:35.47 bitrate=N/A speed=18.8x    frame=12565 fps=451 q=-0.0 size=N/A time=00:08:44.06 bitrate=N/A speed=18.8x    frame=12817 fps=451 q=-0.0 size=N/A time=00:08:54.57 bitrate=N/A speed=18.8x    frame=13066 fps=452 q=-0.0 size=N/A time=00:09:04.96 bitrate=N/A speed=18.8x    frame=13278 fps=451 q=-0.0 size=N/A time=00:09:13.80 bitrate=N/A speed=18.8x    frame=13537 fps=452 q=-0.0 size=N/A time=00:09:24.60 bitrate=N/A speed=18.9x    frame=13792 fps=453 q=-0.0 size=N/A time=00:09:35.24 bitrate=N/A speed=18.9x    frame=14068 fps=454 q=-0.0 size=N/A time=00:09:46.75 bitrate=N/A speed=18.9x    frame=14327 fps=455 q=-0.0 size=N/A time=00:09:57.55 bitrate=N/A speed=  19x    frame=14595 fps=456 q=-0.0 size=N/A time=00:10:08.73 bitrate=N/A speed=  19x    frame=14877 fps=457 q=-0.0 size=N/A time=00:10:20.49 bitrate=N/A speed=19.1x    frame=15115 fps=458 q=-0.0 size=N/A time=00:10:30.42 bitrate=N/A speed=19.1x    frame=15359 fps=458 q=-0.0 size=N/A time=00:10:40.59 bitrate=N/A speed=19.1x    frame=15597 fps=458 q=-0.0 size=N/A time=00:10:50.52 bitrate=N/A speed=19.1x    frame=15858 fps=459 q=-0.0 size=N/A time=00:11:01.41 bitrate=N/A speed=19.1x    frame=16112 fps=459 q=-0.0 size=N/A time=00:11:12.00 bitrate=N/A speed=19.1x    frame=16381 fps=460 q=-0.0 size=N/A time=00:11:23.22 bitrate=N/A speed=19.2x    frame=16617 fps=460 q=-0.0 size=N/A time=00:11:33.06 bitrate=N/A speed=19.2x    frame=16878 fps=461 q=-0.0 size=N/A time=00:11:43.95 bitrate=N/A speed=19.2x    frame=17120 fps=461 q=-0.0 size=N/A time=00:11:54.04 bitrate=N/A speed=19.2x    frame=17380 fps=461 q=-0.0 size=N/A time=00:12:04.89 bitrate=N/A speed=19.2x    frame=17644 fps=462 q=-0.0 size=N/A time=00:12:15.90 bitrate=N/A speed=19.3x    frame=17901 fps=463 q=-0.0 size=N/A time=00:12:26.62 bitrate=N/A speed=19.3x    frame=18133 fps=462 q=-0.0 size=N/A time=00:12:36.29 bitrate=N/A speed=19.3x    frame=18363 fps=462 q=-0.0 size=N/A time=00:12:45.89 bitrate=N/A speed=19.3x    frame=18618 fps=462 q=-0.0 size=N/A time=00:12:56.52 bitrate=N/A speed=19.3x    frame=18889 fps=463 q=-0.0 size=N/A time=00:13:07.82 bitrate=N/A speed=19.3x    frame=19170 fps=464 q=-0.0 size=N/A time=00:13:19.54 bitrate=N/A speed=19.4x    frame=19434 fps=465 q=-0.0 size=N/A time=00:13:30.55 bitrate=N/A speed=19.4x    frame=19664 fps=465 q=-0.0 size=N/A time=00:13:40.15 bitrate=N/A speed=19.4x    frame=19927 fps=465 q=-0.0 size=N/A time=00:13:51.12 bitrate=N/A speed=19.4x    frame=20181 fps=465 q=-0.0 size=N/A time=00:14:01.71 bitrate=N/A speed=19.4x    frame=20436 fps=466 q=-0.0 size=N/A time=00:14:12.35 bitrate=N/A speed=19.4x    frame=20651 fps=465 q=-0.0 size=N/A time=00:14:21.31 bitrate=N/A speed=19.4x    frame=20886 fps=465 q=-0.0 size=N/A time=00:14:31.12 bitrate=N/A speed=19.4x    frame=21143 fps=465 q=-0.0 size=N/A time=00:14:41.83 bitrate=N/A speed=19.4x    frame=21405 fps=466 q=-0.0 size=N/A time=00:14:52.76 bitrate=N/A speed=19.4x    frame=21651 fps=466 q=-0.0 size=N/A time=00:15:03.02 bitrate=N/A speed=19.4x    frame=21907 fps=466 q=-0.0 size=N/A time=00:15:13.70 bitrate=N/A speed=19.5x    frame=22174 fps=467 q=-0.0 size=N/A time=00:15:24.84 bitrate=N/A speed=19.5x    frame=22413 fps=467 q=-0.0 size=N/A time=00:15:34.80 bitrate=N/A speed=19.5x    frame=22636 fps=467 q=-0.0 size=N/A time=00:15:44.10 bitrate=N/A speed=19.5x    frame=22879 fps=467 q=-0.0 size=N/A time=00:15:54.24 bitrate=N/A speed=19.5x    frame=23135 fps=467 q=-0.0 size=N/A time=00:16:04.92 bitrate=N/A speed=19.5x    frame=23410 fps=468 q=-0.0 size=N/A time=00:16:16.39 bitrate=N/A speed=19.5x    frame=23659 fps=468 q=-0.0 size=N/A time=00:16:26.77 bitrate=N/A speed=19.5x    frame=23914 fps=468 q=-0.0 size=N/A time=00:16:37.41 bitrate=N/A speed=19.5x    frame=24184 fps=469 q=-0.0 size=N/A time=00:16:48.67 bitrate=N/A speed=19.5x    frame=24370 fps=467 q=-0.0 size=N/A time=00:16:56.43 bitrate=N/A speed=19.5x    frame=24609 fps=468 q=-0.0 size=N/A time=00:17:06.40 bitrate=N/A speed=19.5x    frame=24869 fps=468 q=-0.0 size=N/A time=00:17:17.24 bitrate=N/A speed=19.5x    frame=25112 fps=468 q=-0.0 size=N/A time=00:17:27.37 bitrate=N/A speed=19.5x    frame=25350 fps=468 q=-0.0 size=N/A time=00:17:37.30 bitrate=N/A speed=19.5x    frame=25594 fps=468 q=-0.0 size=N/A time=00:17:47.48 bitrate=N/A speed=19.5x    frame=25865 fps=468 q=-0.0 size=N/A time=00:17:58.78 bitrate=N/A speed=19.5x    frame=26131 fps=469 q=-0.0 size=N/A time=00:18:09.88 bitrate=N/A speed=19.6x    frame=26382 fps=469 q=-0.0 size=N/A time=00:18:20.34 bitrate=N/A speed=19.6x    frame=26647 fps=469 q=-0.0 size=N/A time=00:18:31.40 bitrate=N/A speed=19.6x    frame=26919 fps=470 q=-0.0 size=N/A time=00:18:42.74 bitrate=N/A speed=19.6x    frame=27152 fps=470 q=-0.0 size=N/A time=00:18:52.50 bitrate=N/A speed=19.6x    frame=27395 fps=470 q=-0.0 size=N/A time=00:19:02.59 bitrate=N/A speed=19.6x    frame=27613 fps=469 q=-0.0 size=N/A time=00:19:11.69 bitrate=N/A speed=19.6x    frame=27798 fps=468 q=-0.0 size=N/A time=00:19:19.40 bitrate=N/A speed=19.5x    frame=28005 fps=468 q=-0.0 size=N/A time=00:19:28.04 bitrate=N/A speed=19.5x    frame=28238 fps=468 q=-0.0 size=N/A time=00:19:37.75 bitrate=N/A speed=19.5x    frame=28476 fps=468 q=-0.0 size=N/A time=00:19:47.68 bitrate=N/A speed=19.5x    frame=28720 fps=468 q=-0.0 size=N/A time=00:19:57.86 bitrate=N/A speed=19.5x    frame=28977 fps=468 q=-0.0 size=N/A time=00:20:08.58 bitrate=N/A speed=19.5x    frame=29226 fps=468 q=-0.0 size=N/A time=00:20:18.96 bitrate=N/A speed=19.5x    frame=29466 fps=468 q=-0.0 size=N/A time=00:20:28.97 bitrate=N/A speed=19.5x    frame=29704 fps=468 q=-0.0 size=N/A time=00:20:38.90 bitrate=N/A speed=19.5x    frame=29963 fps=468 q=-0.0 size=N/A time=00:20:49.70 bitrate=N/A speed=19.5x    frame=30228 fps=469 q=-0.0 size=N/A time=00:21:00.75 bitrate=N/A speed=19.5x    frame=30442 fps=468 q=-0.0 size=N/A time=00:21:09.68 bitrate=N/A speed=19.5x    frame=30628 fps=467 q=-0.0 size=N/A time=00:21:17.44 bitrate=N/A speed=19.5x    frame=30816 fps=467 q=-0.0 size=N/A time=00:21:25.28 bitrate=N/A speed=19.5x    frame=30971 fps=465 q=-0.0 size=N/A time=00:21:31.74 bitrate=N/A speed=19.4x    frame=31141 fps=464 q=-0.0 size=N/A time=00:21:38.83 bitrate=N/A speed=19.4x    frame=31361 fps=464 q=-0.0 size=N/A time=00:21:48.01 bitrate=N/A speed=19.3x    frame=31618 fps=464 q=-0.0 size=N/A time=00:21:58.73 bitrate=N/A speed=19.4x    frame=31878 fps=464 q=-0.0 size=N/A time=00:22:09.57 bitrate=N/A speed=19.4x    frame=32122 fps=465 q=-0.0 size=N/A time=00:22:19.75 bitrate=N/A speed=19.4x    frame=32385 fps=465 q=-0.0 size=N/A time=00:22:30.72 bitrate=N/A speed=19.4x    frame=32635 fps=465 q=-0.0 size=N/A time=00:22:41.15 bitrate=N/A speed=19.4x    frame=32892 fps=465 q=-0.0 size=N/A time=00:22:51.87 bitrate=N/A speed=19.4x    frame=33152 fps=466 q=-0.0 size=N/A time=00:23:02.71 bitrate=N/A speed=19.4x    frame=33385 fps=466 q=-0.0 size=N/A time=00:23:12.43 bitrate=N/A speed=19.4x    frame=33599 fps=465 q=-0.0 size=N/A time=00:23:21.35 bitrate=N/A speed=19.4x    frame=33758 fps=464 q=-0.0 size=N/A time=00:23:27.98 bitrate=N/A speed=19.4x    frame=33900 fps=463 q=-0.0 size=N/A time=00:23:33.91 bitrate=N/A speed=19.3x    frame=34052 fps=462 q=-0.0 size=N/A time=00:23:40.25 bitrate=N/A speed=19.2x    frame=34211 fps=460 q=-0.0 size=N/A time=00:23:46.88 bitrate=N/A speed=19.2x    frame=34395 fps=460 q=-0.0 size=N/A time=00:23:54.55 bitrate=N/A speed=19.2x    frame=34592 fps=459 q=-0.0 size=N/A time=00:24:02.77 bitrate=N/A speed=19.2x    frame=34743 fps=458 q=-0.0 size=N/A time=00:24:09.07 bitrate=N/A speed=19.1x    frame=34886 fps=457 q=-0.0 size=N/A time=00:24:15.03 bitrate=N/A speed=19.1x    frame=35038 fps=456 q=-0.0 size=N/A time=00:24:21.37 bitrate=N/A speed=  19x    frame=35202 fps=455 q=-0.0 size=N/A time=00:24:28.21 bitrate=N/A speed=  19x    frame=35343 fps=454 q=-0.0 size=N/A time=00:24:34.09 bitrate=N/A speed=18.9x    frame=35484 fps=452 q=-0.0 size=N/A time=00:24:39.97 bitrate=N/A speed=18.9x    [Parsed_psnr_10 @ 000001302a439cc0] PSNR y:47.574755 u:49.837525 v:49.336733 average:48.146066 min:40.178574 max:inf
[out#0/null @ 000001302ab1e580] video:15314KiB audio:278812KiB subtitle:0KiB other streams:0KiB global headers:0KiB muxing overhead: unknown
frame=35640 fps=452 q=-0.0 Lsize=N/A time=00:24:46.48 bitrate=N/A speed=18.8x    
